# xmcd
#
# Track frame offsets: 
#        225
#        20314
#        38666
#        63303
#        77999
#        93714
#        117566
#        139419
#        171031
#        189859
#        212693
#        237014
#        262638
#        277417
#
# Disc length: 3987 seconds
#
# Revision: 2
# Processed by: cddbd v1.4PL0 Copyright (c) Steve Scherf et al.
# Submitted via: ExactAudioCopy v0.90b4
#
DISCID=c30f900e
DTITLE=Driver By Truckers - Pizza Deliverance
DYEAR=1999
DGENRE=Country
TTITLE0=Bulldozers and Dirt
TTITLE1=Nine Bullets
TTITLE2=Uncle Frank
TTITLE3=Too Much Sex (too little Jesus)
TTITLE4=Box of Spiders
TTITLE5=One of These Days
TTITLE6=Margo and Harold
TTITLE7=The Company I Keep
TTITLE8=The President's Penis is Missing
TTITLE9=Tales Facing Up
TTITLE10=Love Like This
TTITLE11=Mrs. Dubose
TTITLE12=Zoloft
TTITLE13=The Night G.G. Allin Came To Town
EXTD=
EXTT0=
EXTT1=
EXTT2=
EXTT3=
EXTT4=
EXTT5=
EXTT6=
EXTT7=
EXTT8=
EXTT9=
EXTT10=
EXTT11=
EXTT12=
EXTT13=
PLAYORDER=
